<?xml version="1.0" encoding="utf-8"?>
<!-- Generator: Adobe Illustrator 23.0.3, SVG Export Plug-In . SVG Version: 6.00 Build 0)  -->
<svg version="1.1" id="レイヤー_1" xmlns="http://www.w3.org/2000/svg" xmlns:xlink="http://www.w3.org/1999/xlink" x="0px"
	 y="0px" viewBox="0 0 112.3 44" style="enable-background:new 0 0 112.3 44;" xml:space="preserve">
<style type="text/css">
	.st0{fill:#232538;}
</style>
<g>
	<path class="st0" d="M22,44C9.9,44,0,34.1,0,22S9.9,0,22,0s22,9.9,22,22S34.1,44,22,44z M22,1.1C10.5,1.1,1.1,10.5,1.1,22
		S10.5,42.9,22,42.9S42.9,33.5,42.9,22S33.5,1.1,22,1.1z"/>
	<g>
		<polygon class="st0" points="18.9,7.7 7.9,34.1 15,34.1 22,17.4 29,34.1 36.1,34.1 25.1,7.7 		"/>
	</g>
	<g>
		<polygon class="st0" points="76.6,28 76.6,12.6 72.7,12.6 72.7,31.9 85.7,31.9 85.7,28 		"/>
		<polygon class="st0" points="59.5,17.3 65.4,31.9 69.5,31.9 61.8,12.6 57.3,12.6 49.5,31.9 53.7,31.9 		"/>
	</g>
	<path class="st0" d="M105.4,32.2c-2.4,0-5.2-0.8-7.4-3l2.3-2.3c1.8,1.9,4.5,2.2,6.2,1.9c1.1-0.2,2-0.6,2.3-1.2
		c0.3-0.5,0.3-1.1,0.1-1.6c-0.2-0.6-0.7-1-1.5-1.3c-0.5-0.2-1.3-0.3-2.1-0.5c-1-0.2-2.1-0.4-3-0.7c-1.7-0.7-2.8-2-3.1-3.6
		c-0.4-1.7,0.2-3.5,1.4-4.8c2.8-2.8,7.9-2,11.3,0.4l-1.9,2.7c-2.4-1.7-5.7-2.1-7-0.8c-0.5,0.5-0.7,1.2-0.6,1.8
		c0.1,0.6,0.5,1,1.2,1.3c0.5,0.2,1.4,0.4,2.3,0.5c1,0.2,1.9,0.3,2.7,0.6c1.6,0.6,2.8,1.8,3.4,3.2c0.5,1.4,0.4,2.9-0.3,4.3
		c-0.8,1.5-2.5,2.6-4.7,2.9C106.5,32.2,106,32.2,105.4,32.2z"/>
	<g>
		<polygon class="st0" points="93.6,12.6 89.8,12.6 89.8,18.5 93.6,16.4 		"/>
		<polygon class="st0" points="89.8,19.2 89.8,31.9 93.6,31.9 93.6,17 		"/>
	</g>
</g>
</svg>
