<?xml version="1.0" encoding="utf-8"?>
<!-- Generator: Adobe Illustrator 23.0.3, SVG Export Plug-In . SVG Version: 6.00 Build 0)  -->
<svg version="1.1" id="レイヤー_1" xmlns="http://www.w3.org/2000/svg" xmlns:xlink="http://www.w3.org/1999/xlink" x="0px"
	 y="0px" viewBox="0 0 30.9 39.9" style="enable-background:new 0 0 30.9 39.9;" xml:space="preserve">
<style type="text/css">
	.st0{fill:#FFFFFF;}
</style>
<g>
	<g>
		<polygon class="st0" points="12.1,0 0,28.9 7.8,28.9 15.5,10.6 23.1,28.9 30.9,28.9 18.9,0 		"/>
	</g>
	<g>
		<g>
			<polygon class="st0" points="13.8,38.4 13.8,32.3 12.2,32.3 12.2,39.9 17.3,39.9 17.3,38.4 			"/>
			<polygon class="st0" points="7.1,34.1 9.4,39.9 11,39.9 8,32.3 6.1,32.3 3.1,39.9 4.8,39.9 			"/>
		</g>
		<path class="st0" d="M25.1,40c-0.9,0-2.1-0.3-2.9-1.2l0.9-0.9c0.7,0.7,1.8,0.9,2.4,0.8c0.4-0.1,0.8-0.3,0.9-0.5s0.1-0.4,0-0.6
			c-0.1-0.2-0.3-0.4-0.6-0.5C25.6,37,25.3,37,25,36.9c-0.4-0.1-0.8-0.1-1.2-0.3c-0.6-0.3-1.1-0.8-1.2-1.4c-0.1-0.7,0.1-1.4,0.6-1.9
			c1.1-1.1,3.1-0.8,4.4,0.2l-0.8,1c-0.9-0.7-2.2-0.8-2.8-0.3c-0.2,0.2-0.3,0.5-0.2,0.7c0,0.2,0.2,0.4,0.5,0.5
			c0.2,0.1,0.6,0.1,0.9,0.2c0.4,0.1,0.8,0.1,1.1,0.2c0.6,0.2,1.1,0.7,1.3,1.3c0.2,0.5,0.2,1.1-0.1,1.7c-0.3,0.6-1,1-1.9,1.2
			C25.5,40,25.3,40,25.1,40z"/>
		<g>
			<polygon class="st0" points="20.5,32.3 19,32.3 19,34.6 20.5,33.8 			"/>
			<polygon class="st0" points="19,34.9 19,39.9 20.5,39.9 20.5,34 			"/>
		</g>
	</g>
</g>
</svg>
